<svg
  xmlns="http://www.w3.org/2000/svg"
  viewBox="0 0 450 200"
  style="fill: var(--dark)"
>
  <path d="M128.6 161.4c-13-20-30-38-37-61a379.3 379.3 0 0 1 31-25c5-4 2-9-1-13-10.5-8.9-30.8-36-45-27-1 31 3 62 0 93-1 13 1 25 1 38 1 3 5 3 7 2 3-3 1-9 1-13-2-14 0-27-1-40 15 15 24 35 36 52 2-2 6-2 8-4Zm-41-114v-3c33.2 27.9 33 20.8-1 46 1-14-1-29 1-43Zm95 89.9c0-23 1-46-.4-68.1-11.5-11.9-25-22.6-36.6-34-2.2-1.8-10.1-3.7-13 0-2.2 31.9 2.9 65.6-1 98 0 12-2 23 1 35 3-1 6 1 9-1-1-40 1-79 1-119h2c11 8 19 18 29 26 3 31-1 62 0 93 16.6 10.9 9-22 9-30Zm55.4-40c-1 2.4-3.1 4.2-3.7 6.5a1.6 1.6 0 0 1-1.7 1.1c-5.4-.7-10-5-15.5-6.9-2 23.4-1 45.8-1 69.2a1.6 1.6 0 0 1-1.5 1.6c-3 0-6.5 1.7-6.5-.8-5-26 0-50-1-75-3.2-2.1-21-8.3-20.3-11.3 1.5-15.2 13-3.4 19.9-.6 0-16 .4-33 2.4-49 0-.9 2.6.2 4.6-.3a1.6 1.6 0 0 1 1.9 1.2c4.2 18.3.5 35.7 1.5 54 7 1 13 6 20 8 1 0 1.1 1.4.9 2.3Zm14.4 70.5c-4 .6-4 1.2-6.8 1.7-.7 0-1 .6-1.4 0-7.3-44.8-.1-89.7-.7-134.8 0-1.6 8.2-2.1 9.2-1 1 2.4.7 111.5-.3 134Zm61.6-5.4c1 2.4-1.5 7-4 6-35.3-52.4-10.7-87.4-45-1.4-.7 1.6-6.5-1.8-7.4-3.4-1.4-2.4 15.2-46.5 18.1-57 4.7-9 18-73.9 21.3-74.8 2.4-.4 8.3 3.3 8.9 6.2.9 3.2-10.1 31.2-13 45.2 3 27 13 52.9 21 79.2Zm38.2-41.9c30.5-55.6 24.6-32.2-3-87.3a2.6 2.6 0 0 0-4.4-.2c-9 16.1-17 30.6-25 46.2 2.6 16 17 28.1 19.3 43.4-4.8 8.8-8.7 18.4-15.4 27.2-4 7-8.5 11.8-1.5 18.3 4.5 5.9 19.2-31 23-35.6.2-.5.4-1 1.3.2 6.4 5.2 20.3 55.6 27.2 28.8-6.7-13-18.5-27-21.5-41ZM330.4 78c5-4.8 11.3-27.7 18.2-24.7 7 6 8 17.9 14 24.9a2.6 2.6 0 0 1 .5 2.5c-3.1 9.6-10.6 17.1-14.7 26.7-3.6 5.2-6.5-3.4-7.4-6-2.4-7.2-11.5-16.2-10.6-23.4Z" />
</svg>
