<svg xmlns:xlink="http://www.w3.org/1999/xlink" width="94.364ex" height="11.509ex" style="font-size: 15px; vertical-align: -4.895ex; margin-bottom: -0.276ex;" viewBox="0 -2728.8 40629 4955.4" role="img" focusable="false" xmlns="http://www.w3.org/2000/svg">
<defs>
<path stroke-width="1" id="E1-MJMAIN-31" d="M213 578L200 573Q186 568 160 563T102 556H83V602H102Q149 604 189 617T245 641T273 663Q275 666 285 666Q294 666 302 660V361L303 61Q310 54 315 52T339 48T401 46H427V0H416Q395 3 257 3Q121 3 100 0H88V46H114Q136 46 152 46T177 47T193 50T201 52T207 57T213 61V578Z"></path>
<path stroke-width="1" id="E1-MJMAIN-73" d="M295 316Q295 356 268 385T190 414Q154 414 128 401Q98 382 98 349Q97 344 98 336T114 312T157 287Q175 282 201 278T245 269T277 256Q294 248 310 236T342 195T359 133Q359 71 321 31T198 -10H190Q138 -10 94 26L86 19L77 10Q71 4 65 -1L54 -11H46H42Q39 -11 33 -5V74V132Q33 153 35 157T45 162H54Q66 162 70 158T75 146T82 119T101 77Q136 26 198 26Q295 26 295 104Q295 133 277 151Q257 175 194 187T111 210Q75 227 54 256T33 318Q33 357 50 384T93 424T143 442T187 447H198Q238 447 268 432L283 424L292 431Q302 440 314 448H322H326Q329 448 335 442V310L329 304H301Q295 310 295 316Z"></path>
<path stroke-width="1" id="E1-MJMAIN-69" d="M69 609Q69 637 87 653T131 669Q154 667 171 652T188 609Q188 579 171 564T129 549Q104 549 87 564T69 609ZM247 0Q232 3 143 3Q132 3 106 3T56 1L34 0H26V46H42Q70 46 91 49Q100 53 102 60T104 102V205V293Q104 345 102 359T88 378Q74 385 41 385H30V408Q30 431 32 431L42 432Q52 433 70 434T106 436Q123 437 142 438T171 441T182 442H185V62Q190 52 197 50T232 46H255V0H247Z"></path>
<path stroke-width="1" id="E1-MJMAIN-67" d="M329 409Q373 453 429 453Q459 453 472 434T485 396Q485 382 476 371T449 360Q416 360 412 390Q410 404 415 411Q415 412 416 414V415Q388 412 363 393Q355 388 355 386Q355 385 359 381T368 369T379 351T388 325T392 292Q392 230 343 187T222 143Q172 143 123 171Q112 153 112 133Q112 98 138 81Q147 75 155 75T227 73Q311 72 335 67Q396 58 431 26Q470 -13 470 -72Q470 -139 392 -175Q332 -206 250 -206Q167 -206 107 -175Q29 -140 29 -75Q29 -39 50 -15T92 18L103 24Q67 55 67 108Q67 155 96 193Q52 237 52 292Q52 355 102 398T223 442Q274 442 318 416L329 409ZM299 343Q294 371 273 387T221 404Q192 404 171 388T145 343Q142 326 142 292Q142 248 149 227T179 192Q196 182 222 182Q244 182 260 189T283 207T294 227T299 242Q302 258 302 292T299 343ZM403 -75Q403 -50 389 -34T348 -11T299 -2T245 0H218Q151 0 138 -6Q118 -15 107 -34T95 -74Q95 -84 101 -97T122 -127T170 -155T250 -167Q319 -167 361 -139T403 -75Z"></path>
<path stroke-width="1" id="E1-MJMAIN-6E" d="M41 46H55Q94 46 102 60V68Q102 77 102 91T102 122T103 161T103 203Q103 234 103 269T102 328V351Q99 370 88 376T43 385H25V408Q25 431 27 431L37 432Q47 433 65 434T102 436Q119 437 138 438T167 441T178 442H181V402Q181 364 182 364T187 369T199 384T218 402T247 421T285 437Q305 442 336 442Q450 438 463 329Q464 322 464 190V104Q464 66 466 59T477 49Q498 46 526 46H542V0H534L510 1Q487 2 460 2T422 3Q319 3 310 0H302V46H318Q379 46 379 62Q380 64 380 200Q379 335 378 343Q372 371 358 385T334 402T308 404Q263 404 229 370Q202 343 195 315T187 232V168V108Q187 78 188 68T191 55T200 49Q221 46 249 46H265V0H257L234 1Q210 2 183 2T145 3Q42 3 33 0H25V46H41Z"></path>
<path stroke-width="1" id="E1-MJMAIN-28" d="M94 250Q94 319 104 381T127 488T164 576T202 643T244 695T277 729T302 750H315H319Q333 750 333 741Q333 738 316 720T275 667T226 581T184 443T167 250T184 58T225 -81T274 -167T316 -220T333 -241Q333 -250 318 -250H315H302L274 -226Q180 -141 137 -14T94 250Z"></path>
<path stroke-width="1" id="E1-MJMAIN-29" d="M60 749L64 750Q69 750 74 750H86L114 726Q208 641 251 514T294 250Q294 182 284 119T261 12T224 -76T186 -143T145 -194T113 -227T90 -246Q87 -249 86 -250H74Q66 -250 63 -250T58 -247T55 -238Q56 -237 66 -225Q221 -64 221 250T66 725Q56 737 55 738Q55 746 60 749Z"></path>
<path stroke-width="1" id="E1-MJMAIN-66" d="M273 0Q255 3 146 3Q43 3 34 0H26V46H42Q70 46 91 49Q99 52 103 60Q104 62 104 224V385H33V431H104V497L105 564L107 574Q126 639 171 668T266 704Q267 704 275 704T289 705Q330 702 351 679T372 627Q372 604 358 590T321 576T284 590T270 627Q270 647 288 667H284Q280 668 273 668Q245 668 223 647T189 592Q183 572 182 497V431H293V385H185V225Q185 63 186 61T189 57T194 54T199 51T206 49T213 48T222 47T231 47T241 46T251 46H282V0H273Z"></path>
<path stroke-width="1" id="E1-MJMAIN-65" d="M28 218Q28 273 48 318T98 391T163 433T229 448Q282 448 320 430T378 380T406 316T415 245Q415 238 408 231H126V216Q126 68 226 36Q246 30 270 30Q312 30 342 62Q359 79 369 104L379 128Q382 131 395 131H398Q415 131 415 121Q415 117 412 108Q393 53 349 21T250 -11Q155 -11 92 58T28 218ZM333 275Q322 403 238 411H236Q228 411 220 410T195 402T166 381T143 340T127 274V267H333V275Z"></path>
<path stroke-width="1" id="E1-MJMAIN-78" d="M201 0Q189 3 102 3Q26 3 17 0H11V46H25Q48 47 67 52T96 61T121 78T139 96T160 122T180 150L226 210L168 288Q159 301 149 315T133 336T122 351T113 363T107 370T100 376T94 379T88 381T80 383Q74 383 44 385H16V431H23Q59 429 126 429Q219 429 229 431H237V385Q201 381 201 369Q201 367 211 353T239 315T268 274L272 270L297 304Q329 345 329 358Q329 364 327 369T322 376T317 380T310 384L307 385H302V431H309Q324 428 408 428Q487 428 493 431H499V385H492Q443 385 411 368Q394 360 377 341T312 257L296 236L358 151Q424 61 429 57T446 50Q464 46 499 46H516V0H510H502Q494 1 482 1T457 2T432 2T414 3Q403 3 377 3T327 1L304 0H295V46H298Q309 46 320 51T331 63Q331 65 291 120L250 175Q249 174 219 133T185 88Q181 83 181 74Q181 63 188 55T206 46Q208 46 208 23V0H201Z"></path>
<path stroke-width="1" id="E1-MJMAIN-70" d="M36 -148H50Q89 -148 97 -134V-126Q97 -119 97 -107T97 -77T98 -38T98 6T98 55T98 106Q98 140 98 177T98 243T98 296T97 335T97 351Q94 370 83 376T38 385H20V408Q20 431 22 431L32 432Q42 433 61 434T98 436Q115 437 135 438T165 441T176 442H179V416L180 390L188 397Q247 441 326 441Q407 441 464 377T522 216Q522 115 457 52T310 -11Q242 -11 190 33L182 40V-45V-101Q182 -128 184 -134T195 -145Q216 -148 244 -148H260V-194H252L228 -193Q205 -192 178 -192T140 -191Q37 -191 28 -194H20V-148H36ZM424 218Q424 292 390 347T305 402Q234 402 182 337V98Q222 26 294 26Q345 26 384 80T424 218Z"></path>
<path stroke-width="1" id="E1-MJMAIN-6F" d="M28 214Q28 309 93 378T250 448Q340 448 405 380T471 215Q471 120 407 55T250 -10Q153 -10 91 57T28 214ZM250 30Q372 30 372 193V225V250Q372 272 371 288T364 326T348 362T317 390T268 410Q263 411 252 411Q222 411 195 399Q152 377 139 338T126 246V226Q126 130 145 91Q177 30 250 30Z"></path>
<path stroke-width="1" id="E1-MJMAIN-74" d="M27 422Q80 426 109 478T141 600V615H181V431H316V385H181V241Q182 116 182 100T189 68Q203 29 238 29Q282 29 292 100Q293 108 293 146V181H333V146V134Q333 57 291 17Q264 -10 221 -10Q187 -10 162 2T124 33T105 68T98 100Q97 107 97 248V385H18V422H27Z"></path>
<path stroke-width="1" id="E1-MJMAIN-35" d="M164 157Q164 133 148 117T109 101H102Q148 22 224 22Q294 22 326 82Q345 115 345 210Q345 313 318 349Q292 382 260 382H254Q176 382 136 314Q132 307 129 306T114 304Q97 304 95 310Q93 314 93 485V614Q93 664 98 664Q100 666 102 666Q103 666 123 658T178 642T253 634Q324 634 389 662Q397 666 402 666Q410 666 410 648V635Q328 538 205 538Q174 538 149 544L139 546V374Q158 388 169 396T205 412T256 420Q337 420 393 355T449 201Q449 109 385 44T229 -22Q148 -22 99 32T50 154Q50 178 61 192T84 210T107 214Q132 214 148 197T164 157Z"></path>
<path stroke-width="1" id="E1-MJMAIN-32" d="M109 429Q82 429 66 447T50 491Q50 562 103 614T235 666Q326 666 387 610T449 465Q449 422 429 383T381 315T301 241Q265 210 201 149L142 93L218 92Q375 92 385 97Q392 99 409 186V189H449V186Q448 183 436 95T421 3V0H50V19V31Q50 38 56 46T86 81Q115 113 136 137Q145 147 170 174T204 211T233 244T261 278T284 308T305 340T320 369T333 401T340 431T343 464Q343 527 309 573T212 619Q179 619 154 602T119 569T109 550Q109 549 114 549Q132 549 151 535T170 489Q170 464 154 447T109 429Z"></path>
<path stroke-width="1" id="E1-MJMATHI-74" d="M26 385Q19 392 19 395Q19 399 22 411T27 425Q29 430 36 430T87 431H140L159 511Q162 522 166 540T173 566T179 586T187 603T197 615T211 624T229 626Q247 625 254 615T261 596Q261 589 252 549T232 470L222 433Q222 431 272 431H323Q330 424 330 420Q330 398 317 385H210L174 240Q135 80 135 68Q135 26 162 26Q197 26 230 60T283 144Q285 150 288 151T303 153H307Q322 153 322 145Q322 142 319 133Q314 117 301 95T267 48T216 6T155 -11Q125 -11 98 4T59 56Q57 64 57 83V101L92 241Q127 382 128 383Q128 385 77 385H26Z"></path>
<path stroke-width="1" id="E1-MJMATHI-6F" d="M201 -11Q126 -11 80 38T34 156Q34 221 64 279T146 380Q222 441 301 441Q333 441 341 440Q354 437 367 433T402 417T438 387T464 338T476 268Q476 161 390 75T201 -11ZM121 120Q121 70 147 48T206 26Q250 26 289 58T351 142Q360 163 374 216T388 308Q388 352 370 375Q346 405 306 405Q243 405 195 347Q158 303 140 230T121 120Z"></path>
<path stroke-width="1" id="E1-MJMATHI-6D" d="M21 287Q22 293 24 303T36 341T56 388T88 425T132 442T175 435T205 417T221 395T229 376L231 369Q231 367 232 367L243 378Q303 442 384 442Q401 442 415 440T441 433T460 423T475 411T485 398T493 385T497 373T500 364T502 357L510 367Q573 442 659 442Q713 442 746 415T780 336Q780 285 742 178T704 50Q705 36 709 31T724 26Q752 26 776 56T815 138Q818 149 821 151T837 153Q857 153 857 145Q857 144 853 130Q845 101 831 73T785 17T716 -10Q669 -10 648 17T627 73Q627 92 663 193T700 345Q700 404 656 404H651Q565 404 506 303L499 291L466 157Q433 26 428 16Q415 -11 385 -11Q372 -11 364 -4T353 8T350 18Q350 29 384 161L420 307Q423 322 423 345Q423 404 379 404H374Q288 404 229 303L222 291L189 157Q156 26 151 16Q138 -11 108 -11Q95 -11 87 -5T76 7T74 17Q74 30 112 181Q151 335 151 342Q154 357 154 369Q154 405 129 405Q107 405 92 377T69 316T57 280Q55 278 41 278H27Q21 284 21 287Z"></path>
<path stroke-width="1" id="E1-MJMATHI-61" d="M33 157Q33 258 109 349T280 441Q331 441 370 392Q386 422 416 422Q429 422 439 414T449 394Q449 381 412 234T374 68Q374 43 381 35T402 26Q411 27 422 35Q443 55 463 131Q469 151 473 152Q475 153 483 153H487Q506 153 506 144Q506 138 501 117T481 63T449 13Q436 0 417 -8Q409 -10 393 -10Q359 -10 336 5T306 36L300 51Q299 52 296 50Q294 48 292 46Q233 -10 172 -10Q117 -10 75 30T33 157ZM351 328Q351 334 346 350T323 385T277 405Q242 405 210 374T160 293Q131 214 119 129Q119 126 119 118T118 106Q118 61 136 44T179 26Q217 26 254 59T298 110Q300 114 325 217T351 328Z"></path>
<path stroke-width="1" id="E1-MJMATHI-6B" d="M121 647Q121 657 125 670T137 683Q138 683 209 688T282 694Q294 694 294 686Q294 679 244 477Q194 279 194 272Q213 282 223 291Q247 309 292 354T362 415Q402 442 438 442Q468 442 485 423T503 369Q503 344 496 327T477 302T456 291T438 288Q418 288 406 299T394 328Q394 353 410 369T442 390L458 393Q446 405 434 405H430Q398 402 367 380T294 316T228 255Q230 254 243 252T267 246T293 238T320 224T342 206T359 180T365 147Q365 130 360 106T354 66Q354 26 381 26Q429 26 459 145Q461 153 479 153H483Q499 153 499 144Q499 139 496 130Q455 -11 378 -11Q333 -11 305 15T277 90Q277 108 280 121T283 145Q283 167 269 183T234 206T200 217T182 220H180Q168 178 159 139T145 81T136 44T129 20T122 7T111 -2Q98 -11 83 -11Q66 -11 57 -1T48 16Q48 26 85 176T158 471L195 616Q196 629 188 632T149 637H144Q134 637 131 637T124 640T121 647Z"></path>
<path stroke-width="1" id="E1-MJMATHI-65" d="M39 168Q39 225 58 272T107 350T174 402T244 433T307 442H310Q355 442 388 420T421 355Q421 265 310 237Q261 224 176 223Q139 223 138 221Q138 219 132 186T125 128Q125 81 146 54T209 26T302 45T394 111Q403 121 406 121Q410 121 419 112T429 98T420 82T390 55T344 24T281 -1T205 -11Q126 -11 83 42T39 168ZM373 353Q367 405 305 405Q272 405 244 391T199 357T170 316T154 280T149 261Q149 260 169 260Q282 260 327 284T373 353Z"></path>
<path stroke-width="1" id="E1-MJMATHI-77" d="M580 385Q580 406 599 424T641 443Q659 443 674 425T690 368Q690 339 671 253Q656 197 644 161T609 80T554 12T482 -11Q438 -11 404 5T355 48Q354 47 352 44Q311 -11 252 -11Q226 -11 202 -5T155 14T118 53T104 116Q104 170 138 262T173 379Q173 380 173 381Q173 390 173 393T169 400T158 404H154Q131 404 112 385T82 344T65 302T57 280Q55 278 41 278H27Q21 284 21 287Q21 293 29 315T52 366T96 418T161 441Q204 441 227 416T250 358Q250 340 217 250T184 111Q184 65 205 46T258 26Q301 26 334 87L339 96V119Q339 122 339 128T340 136T341 143T342 152T345 165T348 182T354 206T362 238T373 281Q402 395 406 404Q419 431 449 431Q468 431 475 421T483 402Q483 389 454 274T422 142Q420 131 420 107V100Q420 85 423 71T442 42T487 26Q558 26 600 148Q609 171 620 213T632 273Q632 306 619 325T593 357T580 385Z"></path>
<path stroke-width="1" id="E1-MJMATHI-68" d="M137 683Q138 683 209 688T282 694Q294 694 294 685Q294 674 258 534Q220 386 220 383Q220 381 227 388Q288 442 357 442Q411 442 444 415T478 336Q478 285 440 178T402 50Q403 36 407 31T422 26Q450 26 474 56T513 138Q516 149 519 151T535 153Q555 153 555 145Q555 144 551 130Q535 71 500 33Q466 -10 419 -10H414Q367 -10 346 17T325 74Q325 90 361 192T398 345Q398 404 354 404H349Q266 404 205 306L198 293L164 158Q132 28 127 16Q114 -11 83 -11Q69 -11 59 -2T48 16Q48 30 121 320L195 616Q195 629 188 632T149 637H128Q122 643 122 645T124 664Q129 683 137 683Z"></path>
<path stroke-width="1" id="E1-MJMATHI-69" d="M184 600Q184 624 203 642T247 661Q265 661 277 649T290 619Q290 596 270 577T226 557Q211 557 198 567T184 600ZM21 287Q21 295 30 318T54 369T98 420T158 442Q197 442 223 419T250 357Q250 340 236 301T196 196T154 83Q149 61 149 51Q149 26 166 26Q175 26 185 29T208 43T235 78T260 137Q263 149 265 151T282 153Q302 153 302 143Q302 135 293 112T268 61T223 11T161 -11Q129 -11 102 10T74 74Q74 91 79 106T122 220Q160 321 166 341T173 380Q173 404 156 404H154Q124 404 99 371T61 287Q60 286 59 284T58 281T56 279T53 278T49 278T41 278H27Q21 284 21 287Z"></path>
<path stroke-width="1" id="E1-MJMATHI-73" d="M131 289Q131 321 147 354T203 415T300 442Q362 442 390 415T419 355Q419 323 402 308T364 292Q351 292 340 300T328 326Q328 342 337 354T354 372T367 378Q368 378 368 379Q368 382 361 388T336 399T297 405Q249 405 227 379T204 326Q204 301 223 291T278 274T330 259Q396 230 396 163Q396 135 385 107T352 51T289 7T195 -10Q118 -10 86 19T53 87Q53 126 74 143T118 160Q133 160 146 151T160 120Q160 94 142 76T111 58Q109 57 108 57T107 55Q108 52 115 47T146 34T201 27Q237 27 263 38T301 66T318 97T323 122Q323 150 302 164T254 181T195 196T148 231Q131 256 131 289Z"></path>
<path stroke-width="1" id="E1-MJMATHI-70" d="M23 287Q24 290 25 295T30 317T40 348T55 381T75 411T101 433T134 442Q209 442 230 378L240 387Q302 442 358 442Q423 442 460 395T497 281Q497 173 421 82T249 -10Q227 -10 210 -4Q199 1 187 11T168 28L161 36Q160 35 139 -51T118 -138Q118 -144 126 -145T163 -148H188Q194 -155 194 -157T191 -175Q188 -187 185 -190T172 -194Q170 -194 161 -194T127 -193T65 -192Q-5 -192 -24 -194H-32Q-39 -187 -39 -183Q-37 -156 -26 -148H-6Q28 -147 33 -136Q36 -130 94 103T155 350Q156 355 156 364Q156 405 131 405Q109 405 94 377T71 316T59 280Q57 278 43 278H29Q23 284 23 287ZM178 102Q200 26 252 26Q282 26 310 49T356 107Q374 141 392 215T411 325V331Q411 405 350 405Q339 405 328 402T306 393T286 380T269 365T254 350T243 336T235 326L232 322Q232 321 229 308T218 264T204 212Q178 106 178 102Z"></path>
<path stroke-width="1" id="E1-MJMATHI-63" d="M34 159Q34 268 120 355T306 442Q362 442 394 418T427 355Q427 326 408 306T360 285Q341 285 330 295T319 325T330 359T352 380T366 386H367Q367 388 361 392T340 400T306 404Q276 404 249 390Q228 381 206 359Q162 315 142 235T121 119Q121 73 147 50Q169 26 205 26H209Q321 26 394 111Q403 121 406 121Q410 121 419 112T429 98T420 83T391 55T346 25T282 0T202 -11Q127 -11 81 37T34 159Z"></path>
<path stroke-width="1" id="E1-MJMAIN-72" d="M36 46H50Q89 46 97 60V68Q97 77 97 91T98 122T98 161T98 203Q98 234 98 269T98 328L97 351Q94 370 83 376T38 385H20V408Q20 431 22 431L32 432Q42 433 60 434T96 436Q112 437 131 438T160 441T171 442H174V373Q213 441 271 441H277Q322 441 343 419T364 373Q364 352 351 337T313 322Q288 322 276 338T263 372Q263 381 265 388T270 400T273 405Q271 407 250 401Q234 393 226 386Q179 341 179 207V154Q179 141 179 127T179 101T180 81T180 66V61Q181 59 183 57T188 54T193 51T200 49T207 48T216 47T225 47T235 46T245 46H276V0H267Q249 3 140 3Q37 3 28 0H20V46H36Z"></path>
<path stroke-width="1" id="E1-MJMAIN-61" d="M137 305T115 305T78 320T63 359Q63 394 97 421T218 448Q291 448 336 416T396 340Q401 326 401 309T402 194V124Q402 76 407 58T428 40Q443 40 448 56T453 109V145H493V106Q492 66 490 59Q481 29 455 12T400 -6T353 12T329 54V58L327 55Q325 52 322 49T314 40T302 29T287 17T269 6T247 -2T221 -8T190 -11Q130 -11 82 20T34 107Q34 128 41 147T68 188T116 225T194 253T304 268H318V290Q318 324 312 340Q290 411 215 411Q197 411 181 410T156 406T148 403Q170 388 170 359Q170 334 154 320ZM126 106Q126 75 150 51T209 26Q247 26 276 49T315 109Q317 116 318 175Q318 233 317 233Q309 233 296 232T251 223T193 203T147 166T126 106Z"></path>
<path stroke-width="1" id="E1-MJMAIN-63" d="M370 305T349 305T313 320T297 358Q297 381 312 396Q317 401 317 402T307 404Q281 408 258 408Q209 408 178 376Q131 329 131 219Q131 137 162 90Q203 29 272 29Q313 29 338 55T374 117Q376 125 379 127T395 129H409Q415 123 415 120Q415 116 411 104T395 71T366 33T318 2T249 -11Q163 -11 99 53T34 214Q34 318 99 383T250 448T370 421T404 357Q404 334 387 320Z"></path>
</defs>
<g stroke="currentColor" fill="currentColor" stroke-width="0" transform="matrix(1 0 0 -1 0 0)">
<g transform="translate(167,0)">
<g transform="translate(-11,0)">
<g transform="translate(2544,1746)">
 <use xlink:href="#E1-MJMAIN-31" x="0" y="0"></use>
<g transform="translate(500,0)">
<text font-family="monospace" stroke="none" transform="scale(71.759) matrix(1 0 0 -1 0 0)">位</text>
</g>
</g>
<g transform="translate(0,-812)">
<rect fill="#A0FFFF" stroke="none" width="6733" height="3013" x="0" y="-1292"></rect>
<g transform="translate(143,0)">
<g>
<g transform="translate(717,0)">
 <use xlink:href="#E1-MJMAIN-73"></use>
 <use xlink:href="#E1-MJMAIN-69" x="394" y="0"></use>
 <use xlink:href="#E1-MJMAIN-67" x="673" y="0"></use>
 <use xlink:href="#E1-MJMAIN-6E" x="1173" y="0"></use>
 <use xlink:href="#E1-MJMAIN-28" x="1730" y="0"></use>
<g transform="translate(2119,0)">
<text font-family="monospace" stroke="none" transform="scale(71.759) matrix(1 0 0 -1 0 0)">符</text>
</g>
<g transform="translate(3267,0)">
<text font-family="monospace" stroke="none" transform="scale(71.759) matrix(1 0 0 -1 0 0)">号</text>
</g>
 <use xlink:href="#E1-MJMAIN-29" x="4415" y="0"></use>
<g fill="#A0FFFF" stroke="#A0FFFF" transform="translate(4638,0)">
<g fill="#A0FFFF" stroke="#A0FFFF">
<g fill="#A0FFFF" stroke="#A0FFFF">
<g fill="#A0FFFF" stroke="#A0FFFF">
<g fill="#A0FFFF" stroke="#A0FFFF">
 <use xlink:href="#E1-MJMAIN-66"></use>
</g>
</g>
</g>
</g>
</g>
</g>
</g>
</g>
<line stroke-linecap="square" stroke-width="143.52" y1="71" x2="71" x1="71" y2="2942" transform="translate(-5,-1292)"></line>
<line stroke-linecap="square" stroke-width="143.52" y1="71" x2="71" x1="71" y2="2942" transform="translate(6594,-1292)"></line>
<line stroke-linecap="square" stroke-width="143.52" y2="71" y1="71" x1="71" x2="6661" transform="translate(0,1583)"></line>
<line stroke-linecap="square" stroke-width="143.52" y2="71" y1="71" x1="71" x2="6661" transform="translate(0,-1297)"></line>
</g>
</g>
</g>
<g transform="translate(6728,0)">
<g transform="translate(-11,0)">
<g transform="translate(3437,1746)">
 <use xlink:href="#E1-MJMAIN-31"></use>
 <use xlink:href="#E1-MJMAIN-31" x="500" y="0"></use>
<g transform="translate(1001,0)">
<text font-family="monospace" stroke="none" transform="scale(71.759) matrix(1 0 0 -1 0 0)">位</text>
</g>
</g>
<g transform="translate(0,-812)">
<rect fill="#A0FFA0" stroke="none" width="9519" height="3013" x="0" y="-1292"></rect>
<g transform="translate(143,0)">
<g>
<g transform="translate(717,0)">
<g fill="#A0FFA0" stroke="#A0FFA0">
<g fill="#A0FFA0" stroke="#A0FFA0">
<g fill="#A0FFA0" stroke="#A0FFA0">
<g fill="#A0FFA0" stroke="#A0FFA0">
<g fill="#A0FFA0" stroke="#A0FFA0">
 <use xlink:href="#E1-MJMAIN-66"></use>
</g>
</g>
</g>
</g>
</g>
<g transform="translate(372,0)">
 <use xlink:href="#E1-MJMAIN-65"></use>
 <use xlink:href="#E1-MJMAIN-78" x="444" y="0"></use>
 <use xlink:href="#E1-MJMAIN-70" x="973" y="0"></use>
 <use xlink:href="#E1-MJMAIN-6F" x="1529" y="0"></use>
 <use xlink:href="#E1-MJMAIN-6E" x="2030" y="0"></use>
 <use xlink:href="#E1-MJMAIN-65" x="2586" y="0"></use>
 <use xlink:href="#E1-MJMAIN-6E" x="3031" y="0"></use>
 <use xlink:href="#E1-MJMAIN-74" x="3587" y="0"></use>
 <use xlink:href="#E1-MJMAIN-28" x="3977" y="0"></use>
<g transform="translate(4366,0)">
<text font-family="monospace" stroke="none" transform="scale(71.759) matrix(1 0 0 -1 0 0)">指</text>
</g>
<g transform="translate(5514,0)">
<text font-family="monospace" stroke="none" transform="scale(71.759) matrix(1 0 0 -1 0 0)">数</text>
</g>
 <use xlink:href="#E1-MJMAIN-29" x="6662" y="0"></use>
</g>
<g fill="#A0FFA0" stroke="#A0FFA0" transform="translate(7424,0)">
<g fill="#A0FFA0" stroke="#A0FFA0">
<g fill="#A0FFA0" stroke="#A0FFA0">
<g fill="#A0FFA0" stroke="#A0FFA0">
<g fill="#A0FFA0" stroke="#A0FFA0">
 <use xlink:href="#E1-MJMAIN-66"></use>
</g>
</g>
</g>
</g>
</g>
</g>
</g>
</g>
<line stroke-linecap="square" stroke-width="143.52" y1="71" x2="71" x1="71" y2="2942" transform="translate(-5,-1292)"></line>
<line stroke-linecap="square" stroke-width="143.52" y1="71" x2="71" x1="71" y2="2942" transform="translate(9380,-1292)"></line>
<line stroke-linecap="square" stroke-width="143.52" y2="71" y1="71" x1="71" x2="9447" transform="translate(0,1583)"></line>
<line stroke-linecap="square" stroke-width="143.52" y2="71" y1="71" x1="71" x2="9447" transform="translate(0,-1297)"></line>
</g>
</g>
</g>
<g transform="translate(16076,0)">
<g transform="translate(-11,0)">
<g transform="translate(11123,1746)">
 <use xlink:href="#E1-MJMAIN-35"></use>
 <use xlink:href="#E1-MJMAIN-32" x="500" y="0"></use>
<g transform="translate(1001,0)">
<text font-family="monospace" stroke="none" transform="scale(71.759) matrix(1 0 0 -1 0 0)">位</text>
</g>
</g>
<g transform="translate(0,-812)">
<rect fill="#FFC0C0" stroke="none" width="24390" height="3013" x="0" y="-1292"></rect>
<g transform="translate(143,0)">
<g>
<g transform="translate(717,0)">
<g fill="#FFC0C0" stroke="#FFC0C0">
<g fill="#FFC0C0" stroke="#FFC0C0">
<g fill="#FFC0C0" stroke="#FFC0C0">
 <use xlink:href="#E1-MJMATHI-74"></use>
</g>
<g fill="#FFC0C0" stroke="#FFC0C0" transform="translate(361,0)">
 <use xlink:href="#E1-MJMATHI-6F"></use>
</g>
<g fill="#FFC0C0" stroke="#FFC0C0" transform="translate(847,0)">
 <use xlink:href="#E1-MJMATHI-6D"></use>
</g>
<g fill="#FFC0C0" stroke="#FFC0C0" transform="translate(1725,0)">
 <use xlink:href="#E1-MJMATHI-61"></use>
</g>
<g fill="#FFC0C0" stroke="#FFC0C0" transform="translate(2255,0)">
 <use xlink:href="#E1-MJMATHI-6B"></use>
</g>
<g fill="#FFC0C0" stroke="#FFC0C0" transform="translate(2776,0)">
 <use xlink:href="#E1-MJMATHI-65"></use>
</g>
<g fill="#FFC0C0" stroke="#FFC0C0" transform="translate(3243,0)">
 <use xlink:href="#E1-MJMATHI-77"></use>
</g>
<g fill="#FFC0C0" stroke="#FFC0C0" transform="translate(3959,0)">
 <use xlink:href="#E1-MJMATHI-68"></use>
</g>
<g fill="#FFC0C0" stroke="#FFC0C0" transform="translate(4536,0)">
 <use xlink:href="#E1-MJMATHI-69"></use>
</g>
<g fill="#FFC0C0" stroke="#FFC0C0" transform="translate(4881,0)">
 <use xlink:href="#E1-MJMATHI-74"></use>
</g>
<g fill="#FFC0C0" stroke="#FFC0C0" transform="translate(5243,0)">
 <use xlink:href="#E1-MJMATHI-65"></use>
</g>
<g fill="#FFC0C0" stroke="#FFC0C0" transform="translate(5709,0)">
 <use xlink:href="#E1-MJMATHI-73"></use>
</g>
<g fill="#FFC0C0" stroke="#FFC0C0" transform="translate(6179,0)">
 <use xlink:href="#E1-MJMATHI-70"></use>
</g>
<g fill="#FFC0C0" stroke="#FFC0C0" transform="translate(6682,0)">
 <use xlink:href="#E1-MJMATHI-61"></use>
</g>
<g fill="#FFC0C0" stroke="#FFC0C0" transform="translate(7212,0)">
 <use xlink:href="#E1-MJMATHI-63"></use>
</g>
<g fill="#FFC0C0" stroke="#FFC0C0" transform="translate(7645,0)">
 <use xlink:href="#E1-MJMATHI-65"></use>
</g>
</g>
</g>
<g transform="translate(8112,0)">
 <use xlink:href="#E1-MJMAIN-66"></use>
 <use xlink:href="#E1-MJMAIN-72" x="306" y="0"></use>
 <use xlink:href="#E1-MJMAIN-61" x="699" y="0"></use>
 <use xlink:href="#E1-MJMAIN-63" x="1199" y="0"></use>
 <use xlink:href="#E1-MJMAIN-74" x="1644" y="0"></use>
 <use xlink:href="#E1-MJMAIN-69" x="2033" y="0"></use>
 <use xlink:href="#E1-MJMAIN-6F" x="2312" y="0"></use>
 <use xlink:href="#E1-MJMAIN-6E" x="2812" y="0"></use>
 <use xlink:href="#E1-MJMAIN-28" x="3369" y="0"></use>
<g transform="translate(3758,0)">
<text font-family="monospace" stroke="none" transform="scale(71.759) matrix(1 0 0 -1 0 0)">尾</text>
</g>
<g transform="translate(4906,0)">
<text font-family="monospace" stroke="none" transform="scale(71.759) matrix(1 0 0 -1 0 0)">数</text>
</g>
 <use xlink:href="#E1-MJMAIN-29" x="6054" y="0"></use>
</g>
<g fill="#FFC0C0" stroke="#FFC0C0" transform="translate(14556,0)">
<g fill="#FFC0C0" stroke="#FFC0C0">
<g fill="#FFC0C0" stroke="#FFC0C0">
 <use xlink:href="#E1-MJMATHI-74"></use>
</g>
<g fill="#FFC0C0" stroke="#FFC0C0" transform="translate(361,0)">
 <use xlink:href="#E1-MJMATHI-6F"></use>
</g>
<g fill="#FFC0C0" stroke="#FFC0C0" transform="translate(847,0)">
 <use xlink:href="#E1-MJMATHI-6D"></use>
</g>
<g fill="#FFC0C0" stroke="#FFC0C0" transform="translate(1725,0)">
 <use xlink:href="#E1-MJMATHI-61"></use>
</g>
<g fill="#FFC0C0" stroke="#FFC0C0" transform="translate(2255,0)">
 <use xlink:href="#E1-MJMATHI-6B"></use>
</g>
<g fill="#FFC0C0" stroke="#FFC0C0" transform="translate(2776,0)">
 <use xlink:href="#E1-MJMATHI-65"></use>
</g>
<g fill="#FFC0C0" stroke="#FFC0C0" transform="translate(3243,0)">
 <use xlink:href="#E1-MJMATHI-77"></use>
</g>
<g fill="#FFC0C0" stroke="#FFC0C0" transform="translate(3959,0)">
 <use xlink:href="#E1-MJMATHI-68"></use>
</g>
<g fill="#FFC0C0" stroke="#FFC0C0" transform="translate(4536,0)">
 <use xlink:href="#E1-MJMATHI-69"></use>
</g>
<g fill="#FFC0C0" stroke="#FFC0C0" transform="translate(4881,0)">
 <use xlink:href="#E1-MJMATHI-74"></use>
</g>
<g fill="#FFC0C0" stroke="#FFC0C0" transform="translate(5243,0)">
 <use xlink:href="#E1-MJMATHI-65"></use>
</g>
<g fill="#FFC0C0" stroke="#FFC0C0" transform="translate(5709,0)">
 <use xlink:href="#E1-MJMATHI-73"></use>
</g>
<g fill="#FFC0C0" stroke="#FFC0C0" transform="translate(6179,0)">
 <use xlink:href="#E1-MJMATHI-70"></use>
</g>
<g fill="#FFC0C0" stroke="#FFC0C0" transform="translate(6682,0)">
 <use xlink:href="#E1-MJMATHI-61"></use>
</g>
<g fill="#FFC0C0" stroke="#FFC0C0" transform="translate(7212,0)">
 <use xlink:href="#E1-MJMATHI-63"></use>
</g>
<g fill="#FFC0C0" stroke="#FFC0C0" transform="translate(7645,0)">
 <use xlink:href="#E1-MJMATHI-65"></use>
</g>
</g>
</g>
</g>
</g>
</g>
<line stroke-linecap="square" stroke-width="143.52" y1="71" x2="71" x1="71" y2="2942" transform="translate(-5,-1292)"></line>
<line stroke-linecap="square" stroke-width="143.52" y1="71" x2="71" x1="71" y2="2942" transform="translate(24251,-1292)"></line>
<line stroke-linecap="square" stroke-width="143.52" y2="71" y1="71" x1="71" x2="24318" transform="translate(0,1583)"></line>
<line stroke-linecap="square" stroke-width="143.52" y2="71" y1="71" x1="71" x2="24318" transform="translate(0,-1297)"></line>
</g>
</g>
</g>
</g>
</svg>